<svg xmlns="http://www.w3.org/2000/svg" viewBox="0 0 500 500"><path d="M99.62 102.08l-.18-.17-.1-.06h-.07l-30.4-13.32-6.45-28.1a1 1 0 00-.24-.46 1.05 1.05 0 00-.44-.27 1 1 0 00-.53 0 1 1 0 00-.47.25L40.21 79.37 7.67 71.53H7l-.12.07-.12.1-.1.11v.07a.34.34 0 00-.06.12v.15l-1.46 9.51a1.06 1.06 0 00.11.72l15 23.09-9.43 15.74a.93.93 0 00-.12.33L9 132.86a1.06 1.06 0 00.26.83 1 1 0 00.38.25.87.87 0 00.45.06l32.28-3.33 23.36 21.91a1 1 0 00.69.27 1.82 1.82 0 00.33 0 1 1 0 00.44-.31 1 1 0 00.22-.49l1.67-11.52 1.24-17.26 27.46-10.17a1 1 0 00.43-.31 1 1 0 00.21-.48l1.41-9.51v-.06a1.22 1.22 0 000-.27.89.89 0 00-.15-.31zM7.16 81.6l1-6.6L24.6 98.19l-3.19 5.36zm34.67 47.11l-30.7 3.19 1.37-9.27 30.33-3.39zm23.86 21.1l-21.91-20.62 1-9L67 140.9zm4.08-38.27a1 1 0 00-.68.88l-.7 9.74a1 1 0 000 .73l-1.11 15.42-22.57-21h-.08a1.13 1.13 0 00-.21-.12l-.18-.06h-.32l-30.33 3.39 8.64-14.41.1-.12 4.35-7.3a1 1 0 000-1.09L9.9 74l30.47 7.31a1 1 0 00.49 0 1.14 1.14 0 00.43-.24l19.53-18.48L67 89.47a1.07 1.07 0 00.2.38 1 1 0 00.34.26l28.51 12.49zm26.75 0l-26 9.57.57-7.87 26.54-9zM93 193.42a.93.93 0 00-.42-.31l-15.28-5.72-5.2-16.54a.8.8 0 00-.15-.29.89.89 0 00-.29-.26 1 1 0 00-.37-.14 1.28 1.28 0 00-.39 0 1 1 0 00-.35.17l-5.09 3.82a1.42 1.42 0 00-.24.25l-5.39 8.49-13.23-1.83a1 1 0 00-.74.19L41 184.94a1.27 1.27 0 00-.25.27 1 1 0 00-.11.37.91.91 0 000 .33.86.86 0 00.16.35l10.53 13.84-4.79 14.84a1 1 0 000 .53 1.06 1.06 0 00.25.48 1.08 1.08 0 00.46.27 1 1 0 00.54 0l14.54-4L75 223.5l.16.1.1.06a1.37 1.37 0 00.4.09 1.12 1.12 0 00.4-.1l.07-.05h.08l4.22-3.15a1 1 0 00.31-.38 1 1 0 00.09-.48l-1-15.93 7.86-5 5.08-3.82a1 1 0 00.32-.42.92.92 0 00.06-.52.87.87 0 00-.15-.48zm-22.34-20.59l4.71 14.95-3.56 2.48-4.55-14.88zM46.75 183.1l11.93 1.68-1.39 2.22-13.17-1.9zM76.48 221l-1.26-14.4 2.68-1.7.93 14.3zm2.14-18.85a1 1 0 00-.54.35l-4.38 2.77a1.06 1.06 0 00-.36.4 1 1 0 00-.1.53l1.25 14.23-11.24-10a1 1 0 00-.44-.23 1 1 0 00-.49 0L49 213.84l4.37-13.36a1.08 1.08 0 000-.47 1 1 0 00-.19-.44l-9.38-12.33 13.8 1.94a1 1 0 001-.45l2.42-3.8a1.24 1.24 0 00.29-.46l4.42-7 4.53 14.79a.75.75 0 00.07.12.44.44 0 00.06.16 1 1 0 00.22.19l.15.1L85 198.15zm8.38-5.46l-13.64-5.13 3.3-2.3 13.52 5.08zm127.88 63.05q5.77 15-4.55 25.43a22.21 22.21 0 01-9.5 5.5.64.64 0 00-.18.1l-.21.1-3.22.73-1.54.18c-.61.08-1.23.17-1.87.22-9.39.39-18-2.65-25.61-9a32.3 32.3 0 01-7.81-9.62l-.3-.48c-.45-1-.94-2.09-1.38-3.09a19.21 19.21 0 01-.94-3.14c-2.08-8.69-.2-16 5.73-21.85a22.81 22.81 0 0112.66-6.28c10.58-1.77 20.42 1.08 29.42 8.54a30.77 30.77 0 019.3 12.66zm-78.81-87.41a1 1 0 01.13.37 1 1 0 010 .39.88.88 0 01-.17.35 1 1 0 01-.35.29 1 1 0 01-.45.11 1 1 0 01-.6-.2l-.81-.62c-2.7-2.11-7.13-6.08-5.84-8.6a2.29 2.29 0 01.56-.68 2.09 2.09 0 01.79-.39 8.35 8.35 0 014.45.48 37.05 37.05 0 015.16 2.17 1 1 0 01.49.59 1 1 0 01-.06.76 1 1 0 01-1.36.43 34.94 34.94 0 00-4.36-1.88 7.4 7.4 0 00-3.71-.64l-.15.08c-.3.58 1.27 2.66 3.87 4.94.67.58 1.41 1.18 2.2 1.77a1.2 1.2 0 01.21.28zm2.76 9.47h-.19a1 1 0 01-.65-.22 1 1 0 01-.35-.58v-.07a1 1 0 010-.39 1 1 0 01.16-.36 1 1 0 01.28-.27 1 1 0 01.37-.14A7.85 7.85 0 00143 177a8.86 8.86 0 001.8-5.22 1 1 0 011-1 1 1 0 01.71.29 1 1 0 01.29.71 10.81 10.81 0 01-2.22 6.52 9.91 9.91 0 01-5.75 3.5zm355.83 84.63c-10.77-15.24-27.4-28.15-48.08-37.36a1.08 1.08 0 00-.32-.24 167.16 167.16 0 00-54.49-13.74c-14-1-28.25.21-42 1.41-10.18.9-20.8 1.8-31.18 1.8-25.26 0-51.51-12-65.36-29.94 1.19-15.11.36-38.07-9.21-65.39a218.1 218.1 0 00-24.72-48.48c-16.85-28.7-42-42.46-74.85-40.87a16.66 16.66 0 00-5.32 1c-5.68 2-10.37 6.92-12.85 13.43-2.29 6-2.29 12.38-.19 16.82a13.89 13.89 0 00-1.9 12.2c1.64 5 6.9 11.66 23 15.41 19.59 4.52 23.65 5.52 24.47 5.74a62.91 62.91 0 0110.87 16 .94.94 0 00.24.49 76.8 76.8 0 013.13 7.43c5.07 14 6.3 29.35 3.69 45.66a25.45 25.45 0 00-8.8 3 33.26 33.26 0 00-1-20 26.79 26.79 0 008.55-10.87 1 1 0 00.08-.6.94.94 0 00-.28-.54 1 1 0 00-.54-.28 1 1 0 00-.6.09 19.61 19.61 0 01-16.41-.46 11.51 11.51 0 002.28-8.44 1 1 0 00-.21-.52 1 1 0 00-.45-.32 1.06 1.06 0 00-.53 0 1 1 0 00-.47.26c-2.48 2.48-6.73 3.48-11.66 2.73-.44-.07-1.36-.33-2.52-.67-6.14-1.8-20.42-6-28.74 1-5 4.2-7 11.73-6 22.38a49 49 0 00-1 16.19 92.44 92.44 0 003 17c2.9 10 7.42 16 13.42 17.59l.3.08a16.56 16.56 0 00-8.5 3.88c-4.1 3.37-6.58 8.09-6.47 12.31v.09c-2.78 5.21-4.92 12.15-5.16 21.28-.34 13.71 8 29.56 25.47 48.41-2.69 3.14-7.6 4.2-15.25 3.28a10.76 10.76 0 00-1.27-.17l-.9-.13c-5.33-.77-7 1.24-7.54 3.07a5.92 5.92 0 00-.11 1.83c-2.4 1.18-6.7 3.76-8.19 7.6-4.65 14.43 10.71 22.13 10.87 22.21a29.46 29.46 0 0013.53 3.52 27 27 0 0014.14-4.16c8.47-5.15 13.86-13.5 15.68-16.64 2.91 2.71 5.55 5.19 7.11 6.87-.15.41-.32.9-.51 1.5a.94.94 0 00-.37.25 1 1 0 00-.23.39c-2.72 9.42-7.44 31.82-9.29 54.92-1.59 20-1.44 46.53 8.32 59.86a19.91 19.91 0 0016.23 8.66h.92c12.34 0 22.38-7 29.89-20.65 3.78 8.47 13.92 29.26 22.48 29.26a4.91 4.91 0 00.86-.07 8 8 0 005.46-4.5c4-7.82 1-23.82-1.63-29.82a50.32 50.32 0 01-4.21-16.87 56.77 56.77 0 01.21-9.58l.06-.65v-1.62c-.45-11.16-6.39-14.39-10.09-15.71.72-7.15 1-12.91 1.15-16.22 11.12 13 22.39 25.19 23 25.82a50.57 50.57 0 004 3.6 16.24 16.24 0 012.92 5.68c1.08 3.49 1.85 9.25-.64 17-3.77 11.63-1.6 22.24 2 27.18 1.28 1.77 2.7 2.71 4.08 2.71h.22c9.5-1.44 15.92-12.05 19.07-31.55a174.85 174.85 0 001.9-28.26 22.85 22.85 0 001.19-5.72 221.16 221.16 0 00-.21-37.47c10.43 1.33 20.1 5.39 28.27 9.26l1.87 3.72-11.87 39.85a1 1 0 000 .67 1 1 0 00.54.54 1 1 0 00.76 0l30.12-12.22 24.44 35.95a1.25 1.25 0 00.23.23l.19.1h.07a.92.92 0 00.28.05h.29l23.76-7a1 1 0 00.53-.38 1 1 0 00.18-.62l-3.07-42.84 26.9-16.27a.64.64 0 00.24-.22l.06-.07a.9.9 0 00.12-.24v-.08a1.61 1.61 0 000-.31v-.05a1 1 0 00-.1-.29v-.07a1 1 0 00-.23-.26.76.76 0 00-.19-.12l-6.71-3a110.08 110.08 0 008.85-13.74c1.8-3.28 3.55-6.67 5.23-10 5-9.84 10.28-20 17.83-28.23a61.82 61.82 0 0111.72-9.61 92.2 92.2 0 0111-6c11.92-5.48 24.41-8.25 34.26-7.61a1 1 0 00.94-.51 1 1 0 00.13-.54 1 1 0 00-.18-.47zm-176.07-46.12c10.46 0 21.08-.9 31.35-1.81 13.67-1.2 27.81-2.41 41.67-1.41A165.11 165.11 0 01441 228.78l-.26-.06a161 161 0 00-31.43 4.28c-6.24 1.41-12.54 3-18.64 4.62l-1.22.31c-15.24 3.91-31 7.94-46.78 8.64-1.89.09-3.77.09-5.66.09a111.88 111.88 0 01-19.07-1.83l-.84-.15-1.1-.22-1.76-.36h-.13a118.65 118.65 0 01-53.52-27.41l-.63-.58c-.45-.4-.89-.81-1.33-1.22-1.5-8.88-2.95-15.94-4.06-20.88a.74.74 0 000-.21 1 1 0 000-.24v-.22l-.09-.35c14.76 16.48 39.89 27.32 64.11 27.32zM172.91 96.72l-.24-.17c-.53-.25-12.35-3-23-5.43l-2-.47c-15.18-3.54-20.07-9.6-21.5-14.07a11.75 11.75 0 011.62-10.4c4.29-.14 9.17 1.55 13.51 4.7a16 16 0 011.35 1.12 15 15 0 001.07 1.76 14.59 14.59 0 001.89 2.33l.07.07a6.54 6.54 0 01.44 1.57 5.66 5.66 0 01-2.7 5.61 3.69 3.69 0 01-1.08.35 1 1 0 00-.38.11 1 1 0 00-.3.24 1 1 0 00-.24.73 1 1 0 00.11.38 1 1 0 00.24.3 1 1 0 00.73.24h.15a5.64 5.64 0 001.6-.51 7.67 7.67 0 003.92-7.08 12.77 12.77 0 006.56 1.9 10.92 10.92 0 004-.75 10.57 10.57 0 006.6 3.79 7.83 7.83 0 001.08.07 8.28 8.28 0 006.59-3.26 12.21 12.21 0 001.24 1.88 8.41 8.41 0 006.28 3.11 6.58 6.58 0 001.09-.08c4.11-.71 6.33-4.87 7.47-8.23l.42-1.25c.93-2.86 1.9-5.81 4.12-7.51l.07-.05a1 1 0 00.36-.68 1 1 0 00-.23-.73 1 1 0 00-.68-.36 1 1 0 00-.73.23c-2.72 2.07-3.82 5.34-4.82 8.49l-.18.53c-.07.23-.15.46-.23.69-1 2.9-2.78 6.36-5.92 6.9a6.08 6.08 0 01-3-.44 6.18 6.18 0 01-2.44-1.88 13.89 13.89 0 01-2.6-6.25 28 28 0 015.49-22.09 1.06 1.06 0 00.18-.35 1.26 1.26 0 000-.39 1.23 1.23 0 00-.12-.37 1.16 1.16 0 00-.25-.29.9.9 0 00-.35-.18.86.86 0 00-.39 0 .81.81 0 00-.37.12.91.91 0 00-.3.25 29.95 29.95 0 00-5.89 23.7 22 22 0 00.78 3 6.19 6.19 0 01-6.42 3.38 8.7 8.7 0 01-5.46-3.21.9.9 0 00-.09-.32 1 1 0 00-.48-.44c-.17-.24-.33-.49-.48-.74a18.54 18.54 0 01-2.07-8.45 31.73 31.73 0 016.74-20.28 1 1 0 00.22-.35 1.13 1.13 0 000-.41 1 1 0 00-.11-.39 1.18 1.18 0 00-.26-.32.91.91 0 00-.37-.18.82.82 0 00-.41 0 1.07 1.07 0 00-.39.14 1.14 1.14 0 00-.29.29A33.68 33.68 0 00155 67.91a20.06 20.06 0 002.44 9.34s0 .08.08.12.07.07.07.11A10.65 10.65 0 01147.44 75a13.48 13.48 0 00-2.34-3.5c-.23-.25-.48-.5-.74-.75a19.43 19.43 0 01-1.73-8.23 25 25 0 017.65-17.82 1 1 0 00-1.41-1.41 27 27 0 00-8.27 19.27 22.73 22.73 0 00.76 5.92 24.22 24.22 0 00-13.29-4.31c-2-4-2-9.86.13-15.37 2.26-6 6.51-10.45 11.65-12.27a14.72 14.72 0 014.73-.88q20.05-1 36.06 5.82c15 6.34 27.38 17.73 37 34.12q4.65 6.89 8.65 13.88a.81.81 0 000 .22c.2.67 5 17.19-9.7 25.43-13.21 7.38-29.61-.37-32.21-1.69-5.32-10.84-11.17-16.43-11.47-16.71zm.29 86.73a.89.89 0 00.08-.43 8.68 8.68 0 01.27-1 5.62 5.62 0 01.19-.58c.15-.42.32-.84.51-1.24.06-.12.11-.24.16-.36a12.49 12.49 0 011.33-2.11 19.5 19.5 0 012.33-2.48l1-.86.7-.59a24.14 24.14 0 019.16-3.87h.12c-.09.41-.18.88-.28 1.41s-.2 1.12-.29 1.78a85.15 85.15 0 001 28.48 12.59 12.59 0 00-14.32 4.5 125.39 125.39 0 01-2-15.32c-.1-1.47-.17-2.68-.23-4.08a14.43 14.43 0 01.27-3.25zm16.8 20.66l.2.1a4.16 4.16 0 01.47.24 5.8 5.8 0 01.52.34 9.38 9.38 0 011.26 1 9.26 9.26 0 011.23 11.89 10.37 10.37 0 01-6.41 4.37h-.05a9.91 9.91 0 01-12-7.18 4.22 4.22 0 01-.22-.87 9.39 9.39 0 01.73-4.84 10.2 10.2 0 014-4.52 10.72 10.72 0 015.62-1.6 4.21 4.21 0 01.5 0h.5a10.29 10.29 0 013.65 1.07zm-66.69-33.58a46.46 46.46 0 011-15.68c3.63-7.74 8.57-8.81 13.74-9.27a11.05 11.05 0 012.3 0c4.44.36 10.18 2.62 14.29 5.07 1.16 4.26 1.76 7.29 2.43 10.69l.09.44c.25 1.32.52 2.69.84 4.22a.91.91 0 00.23.46 1.06 1.06 0 00.43.29 7.85 7.85 0 011.5-.45 7.1 7.1 0 011.13-.12 8 8 0 011.69.09c3.94.66 6.68 4 6.11 7.39a5.83 5.83 0 01-2.54 3.86 7.81 7.81 0 01-.88.52 9.47 9.47 0 01-.93.37c.28.81.55 1.53.83 2.23a.24.24 0 01.06.09.41.41 0 010 .11v.12c.08.19.15.35.24.61s.11.31.17.47.11.27.18.47l.37 1.05c0 .13.09.27.14.41a1 1 0 00.31.47 1.22 1.22 0 00.51.22h.91a7.39 7.39 0 001.69-.22q.41-.1.78-.24a4.19 4.19 0 00-.09 1v1.55c.1 2.86.3 5.56.55 8.06-1.57 7.87-5.39 16.35-14.39 19.19a9.84 9.84 0 01-4.27.53 9.69 9.69 0 01-4.08-1.37 18.07 18.07 0 01-5.8-6.15c-.12-.19-.23-.39-.34-.58l-.17-.29-.21-.36h.7a15.81 15.81 0 001.94-.24 23.89 23.89 0 0010.35-4.93 30.24 30.24 0 005.66-5.92 1.19 1.19 0 00.17-.36 1 1 0 000-.39 1.11 1.11 0 00-.13-.36.94.94 0 00-.27-.29h-.05a1 1 0 00-.72-.15 1 1 0 00-.63.39c-.55.76-1.14 1.48-1.75 2.17a26.32 26.32 0 01-7.92 6.18 20.43 20.43 0 01-3.3 1.31 17.37 17.37 0 01-2.14.47H144a14.2 14.2 0 01-2.84.14 6.76 6.76 0 01-1-.09h-.17a9.38 9.38 0 01-1.18-.2c-6.08-1.3-13.23-8.36-15.55-32.98zm4.69 66.66a9.67 9.67 0 01.08-1.94v-.05a11.1 11.1 0 01.35-1.49 10.47 10.47 0 012.23-4c.19-.21.38-.42.58-.61a10.08 10.08 0 019.18-2.69 9.82 9.82 0 011.77.55 11.7 11.7 0 011.11.58 11.58 11.58 0 011.16.82 8.86 8.86 0 01.77.73 9.94 9.94 0 01-.74 14 10.51 10.51 0 01-5.1 2.68 9.68 9.68 0 01-4.81-.17 9.54 9.54 0 01-4.11-2.5 9.25 9.25 0 01-2.47-5.91zm-3.1-15.69a7.36 7.36 0 01.1-1.5 12 12 0 01.82-3 16.82 16.82 0 014.76-6.17 15.43 15.43 0 015.87-3.09 10.86 10.86 0 013-.36h.78v.71a130.63 130.63 0 001.54 16.63A12.13 12.13 0 00130 227.6a.27.27 0 00-.08.07 12.37 12.37 0 00-2.6 3.53 28.6 28.6 0 01-2.33-9.09zm22.67 105.24c-.82.49-1.65.93-2.48 1.33-7.43 3.59-15.25 3.34-23.25-.77a24.11 24.11 0 01-6.6-5.15c-3.89-4.38-5-9.29-3.28-14.6 1.26-3.24 5.07-5.52 7.18-6.52l.36-.18h.15a13 13 0 014.59-.5c.77 0 1.32.3 1.32.5a.6.6 0 01-.2.41 6.19 6.19 0 01-1.3.85 19.77 19.77 0 00-8.46 5.68 1.14 1.14 0 00-.19.34 1 1 0 000 .39.94.94 0 00.11.37 1 1 0 00.24.31 1 1 0 00.65.25 1 1 0 00.42-.09 1 1 0 00.34-.26 17.17 17.17 0 012-2 17.92 17.92 0 016.89-3.52 6.34 6.34 0 012.63-.26 2.24 2.24 0 011 .36 2.31 2.31 0 01.71.78 1.16 1.16 0 01.1.78 1.14 1.14 0 01-.4.67.43.43 0 00-.1.09 15.76 15.76 0 00-9.93 5.33c-.19.22-.37.44-.55.67a1 1 0 00.19 1.4 1 1 0 001.11 0 .92.92 0 00.29-.23 13.88 13.88 0 0111.35-5.24 4.21 4.21 0 012.75.92 1.67 1.67 0 01.4 1.19.73.73 0 01-.29.57 1.2 1.2 0 00-.32.45 17.74 17.74 0 00-11.46 7.35 2.73 2.73 0 00-.21.3 1 1 0 00-.13.55 1 1 0 00.19.53 1.06 1.06 0 00.29.27 1.11 1.11 0 00.36.13.9.9 0 00.4 0 1 1 0 00.35-.16 1 1 0 00.21-.21 15.7 15.7 0 0110.72-6.8c1.86-.29 4 0 4.71 1.45.57 1.08 0 2.54-.71 3.46a16.34 16.34 0 01-2.09 2.15c-.42.38-.83.76-1.22 1.15-1.63 1.72-2.37 3.42-2.23 5.07a1 1 0 00.1.37 1 1 0 00.89.55h.08a.83.83 0 00.34-.1 1 1 0 00.45-.41 1 1 0 00.13-.59 4.77 4.77 0 011.67-3.52c.28-.28.57-.55.88-.83l.25-.23a16.09 16.09 0 002.36-2.45c1.07-1.45 1.76-3.74.89-5.54s-2.84-2.52-4.76-2.63a3.46 3.46 0 00.13-.64 3.58 3.58 0 00-.95-2.77 6 6 0 00-4.14-1.51h-.16a3.29 3.29 0 00-.21-2.33 4.12 4.12 0 00-1.31-1.5 4.05 4.05 0 00-1.86-.72 5.47 5.47 0 00-1.51-.06 2.11 2.11 0 000-1c-.26-1.13-1.39-1.88-3.1-2a14.61 14.61 0 00-4.12.29 3.18 3.18 0 01.08-.81c.4-1.48 2.19-2 5.3-1.57l2.11.29a25.48 25.48 0 0113.58 7.58 1 1 0 00.7.31 1.07 1.07 0 00.72-.28 1 1 0 000-1.42 28.65 28.65 0 00-7.93-5.89c3.78-.25 7.41-1.32 9.88-4.08 5.92 6.28 11.92 11.9 16.78 16.45l.75.7.53.5c-1.45 2.54-6.82 11.21-15.12 16.28zm89.94 63.11v1.5l-.05.54a58.46 58.46 0 00-.21 9.9 52.47 52.47 0 004.36 17.54c2.6 6 5.21 21.12 1.68 28.12a6 6 0 01-4.06 3.44c-3.43.58-8.57-4.66-14.39-14.8a161.26 161.26 0 01-7.36-14.7c5.71-11.32 9.63-26.54 11.71-45.24 3.36 1.29 7.98 4.26 8.36 13.7zm22.05-91.17c-4 7.85-11.05 15-20.45 20.5-18 10.49-45.39 14.09-66-1.51h-.07v-.05c-1.7-1.86-4.8-4.76-8.15-7.87a.89.89 0 00-.45-.5h-.11l-.27-.25-.21-.19-.3-.28-.77-.73-1.18-1.11c-4.79-4.51-10.6-10-16.23-16-17.29-18.5-25.89-34.55-25.57-47.7a47.52 47.52 0 013.6-17.61 37 37 0 002.93 8.56A11.3 11.3 0 00137.44 248a12.43 12.43 0 008.55-3.45 11.93 11.93 0 00.82-16.83 11.58 11.58 0 00-2.69-2.09 137 137 0 01-1.66-15.63 18.3 18.3 0 005.26 5 11.54 11.54 0 006 1.68 13.24 13.24 0 004-.65c6.81-2.17 11.73-7.54 14.44-15.67.53 3.48 1.05 6.38 1.53 8.59a11.22 11.22 0 00-.45 6.41 11.78 11.78 0 0011.64 9 12.61 12.61 0 002.81-.32 12.38 12.38 0 007.58-5.22c.12-.17.23-.35.34-.53a11.28 11.28 0 00-3.91-15.47 91.53 91.53 0 01-2-16.41c2.06 10.74 8.17 23.26 25.06 28.13h.24a1 1 0 00.62-.19 1 1 0 00.38-.53 1.05 1.05 0 00-.08-.76 1 1 0 00-.6-.48c-12.59-3.65-20.46-12-23.39-25a52.56 52.56 0 01-.67-18.25 1.11 1.11 0 00.13-.36c2.87-17 1.61-33-3.63-47.47-.67-1.87-1.39-3.62-2.12-5.28a51.93 51.93 0 008.78 2.91 41.06 41.06 0 009.17 1.1 28.15 28.15 0 0013.91-3.41c10.72-6 11.91-16.18 11.49-22.41a204.11 204.11 0 0113.14 29.31c9.91 28.38 10.34 52 8.91 66.79s-4.92 24-5.47 25.4c0 .13-.07.19-.07.2a1 1 0 000 .75 1.07 1.07 0 00.52.53 1 1 0 001.3-.5c.17-.42 3.53-8.46 5.28-22.51 1.13 5 2.61 12.18 4.13 21.27a465 465 0 016.48 63.72 31 31 0 01-.94 12.49 37.06 37.06 0 01-2.67 6.82zm6.34 139.2a4.07 4.07 0 01-2.41-1.89c-2.73-3.79-5.5-13.68-1.73-25.39 3.08-9.6 1.59-16.42-.17-20.44a18.47 18.47 0 0010.5 3.07c4.26-.23 8.06-2.41 11.32-6.41a23.44 23.44 0 001.71-2.46c-.18 13.08-2.12 50.82-19.18 53.52zM361.24 366a.77.77 0 00-.22.22 1.11 1.11 0 00-.14.29 1.31 1.31 0 000 .28l1.18 43.92-23-33.8a1 1 0 00-.54-.4 1 1 0 00-.67 0l-28.93 11.79 11.39-38.24a1 1 0 00-.07-.73l-.89-1.78-.63-1.39-.72-1.46-16.05-32 29.35 10.9a1 1 0 00.68 0 1.64 1.64 0 00.22-.14h.06a1.39 1.39 0 00.21-.27l1.32-2.62 14.57-28.73 8.21 41.67v.09a.67.67 0 00.1.23l.06.08a1.06 1.06 0 00.2.17l28 16-17 11.45-1.47 1-1.43 1zm-57.81-54.89l16.57-3.54 15.23 5.54-4.14 8.27zM350 289.66l20.68.49 6.46 41.18-18.77.78zm35.83 116.69l-21.74 6.43-1.22-45.13 20-2.81zm-2.42-43.65L366 365.15l2.63-1.77 3.23-2.18 15.43-10.36 8.93-1 1.61-.19 1.62-.18 7.33-.85zm24.14-16.17l-5.91.68-1.51.18-1.53.17-11.35 1.32L361.07 334l17-.71L401.73 344l.93.41 1 .38zM491 265.9c-9.67 0-21.23 2.75-32.28 7.85a97.2 97.2 0 00-11.3 6.15 64.1 64.1 0 00-12.11 9.92c-7.69 8.4-13 18.7-18.1 28.65l-.24.46c-1.6 3.13-3.25 6.34-5 9.45a104.26 104.26 0 01-9 13.85l-23.82-10.67L372.5 289a1 1 0 00-.34-.61 1.06 1.06 0 00-.66-.23l-22.76-.54h-.05a1.23 1.23 0 00-.38.08.7.7 0 00-.32.24v.06a.45.45 0 00-.1.14l-11.72 23.11-15.77-5.73a1 1 0 00-.55 0l-20.21 4.28a1 1 0 00-.29.11v.09a.49.49 0 00-.18.14.79.79 0 00-.14.23v.07a.86.86 0 00-.06.23v.55l15.94 32.18c-7.9-3.65-17.09-7.24-27-8.42a7.3 7.3 0 00-.08-.94c0-.13 0-.25-.05-.37v-.29c-.32-2.91-.66-5.93-1.18-9a86.59 86.59 0 00-13.6-35.69.88.88 0 00-.1-.22 60.31 60.31 0 00-7.62-9.6 467.06 467.06 0 00-6-60.65 121.49 121.49 0 0039.08 23.45l.32.12c.74.27 1.48.53 2.23.78l.65.22 1.91.62 1 .3 1.62.48 1.24.36 1.35.36c.51.14 1 .27 1.51.39l1.09.28 1.75.4.88.2 1.95.4.69.14c.71.14 1.41.27 2.12.39l.56.1 2.23.35.47.07c.77.11 1.54.22 2.31.31h.43l2.21.25h.57c.76.08 1.52.14 2.28.2h1.14c.52 0 1.05.08 1.57.08h.75l1.94.07h3.55c1.36 0 2.68 0 4-.09h.22c16.41-.72 32.7-4.93 48.41-9 6.08-1.61 12.37-3.21 18.58-4.61a162.87 162.87 0 0128.64-4.12l2.27-.09h4.73c19.77 8.75 35.76 20.9 46.4 35.21z" fill="#171a22" fill-rule="evenodd"/><path d="M134.08 235.83a11.41 11.41 0 000 1.17 10.17 10.17 0 005.45 8.88 9.68 9.68 0 01-4.81-.17 9.54 9.54 0 01-4.11-2.5 9.27 9.27 0 01-2.52-5.93 9.67 9.67 0 01.08-1.94v-.05a11.1 11.1 0 01.35-1.49 10.47 10.47 0 012.23-4c.2-.22.39-.43.6-.63a10.08 10.08 0 019.18-2.69 11.67 11.67 0 00-5.64 6.08 11 11 0 00-.62 2 10.8 10.8 0 00-.19 1.27zm5.72-28.45h-.17a10.86 10.86 0 00-3 .36 15.43 15.43 0 00-5.87 3.09A16.82 16.82 0 00126 217a12.16 12.16 0 00-.87 3 7.36 7.36 0 00-.09 1.48v.61a28.89 28.89 0 002.34 9.08 12.37 12.37 0 012.6-3.53.27.27 0 01.08-.07 25.46 25.46 0 01-1-5.94 13.46 13.46 0 012.94-8.23 18.63 18.63 0 017.8-6.02zm-9.8-42.12s-.15 0-.15.08c-.31.58 1.26 2.66 3.86 4.94-.06-1.5-.07-3 0-4.38a7.4 7.4 0 00-3.71-.64zm8.9 38.29a9.38 9.38 0 001.18.2 9.26 9.26 0 001.17.11 14.2 14.2 0 002.84-.14h.12c-2.7-2.62-4.87-6.49-6.55-11.49-.11-.32-.21-.64-.31-1l-.3-.95a93.07 93.07 0 01-3.11-17.12V173c-2.7-2.11-7.13-6.08-5.84-8.6a2.12 2.12 0 01.55-.68 2 2 0 01.77-.4 8.35 8.35 0 014.45.48c.63-7.52 3-13.84 6.55-18.23a11.05 11.05 0 00-2.3 0c-5.21.49-10.15 1.56-13.79 9.3a46.46 46.46 0 00-1 15.68c2.3 24.6 9.45 31.66 15.52 33zm8.84-112.93l2 .47a18.13 18.13 0 01-5.45-5.91 5.64 5.64 0 01-1.6.51h-.15a1 1 0 01-.73-.24 1 1 0 01-.24-.3 1 1 0 01-.11-.38 1 1 0 01.24-.73 1 1 0 01.3-.24 1 1 0 01.38-.11 3.69 3.69 0 001.08-.35 12.86 12.86 0 01.3-9.58 14.93 14.93 0 01-1.11-1.76 16 16 0 00-1.35-1.12c-4.31-3.19-9.22-4.88-13.51-4.74a11.75 11.75 0 00-1.62 10.4c1.45 4.46 6.34 10.54 21.52 14.08zm-6.34-22.17a22.73 22.73 0 01-.76-5.92 27 27 0 018.27-19.27 1 1 0 011.41 1.41 25 25 0 00-7.65 17.82 19.43 19.43 0 001.73 8.23c.26.25.51.5.74.75l.34-.41c-4.75-8.64.07-25.24 12.12-29.52a15.81 15.81 0 015-.94 91.86 91.86 0 0118 .84h.08q-16-6.82-36.06-5.82a14.72 14.72 0 00-4.73.88c-5.14 1.82-9.39 6.27-11.65 12.27-2.13 5.51-2.13 11.37-.13 15.37a24.22 24.22 0 0113.29 4.31zM184.86 204a12.85 12.85 0 011.52-1c-.33 0-.67-.07-1-.07a10.63 10.63 0 00-5.62 1.6 10.2 10.2 0 00-4 4.52 9.39 9.39 0 00-.73 4.84 4.13 4.13 0 00.16.92 9.93 9.93 0 0012 7.16 10.36 10.36 0 01-4.35-3.12 10.16 10.16 0 01-2.09-4.36 8.31 8.31 0 01-.15-1v.08c0-.33-.06-.67-.06-1a10.57 10.57 0 014.32-8.57zm3.86-32.6c.1-.53.19-1 .28-1.41h-.1a24.09 24.09 0 00-9.16 3.84c-.57.41-1.13.86-1.69 1.35a19.5 19.5 0 00-2.33 2.48 12.49 12.49 0 00-1.33 2.11c0 .12-.1.24-.16.36-.19.4-.36.82-.51 1.24a5.62 5.62 0 00-.19.58 8.68 8.68 0 00-.27 1 .89.89 0 01-.08.43 14.39 14.39 0 00-.24 3.21c.06 1.4.14 2.76.23 4.08.1 1.54.22 3 .36 4.31.45 4.39 1.06 8.15 1.63 11.08a12.27 12.27 0 014.26-3.71 132.86 132.86 0 01-1.25-13.65 14.78 14.78 0 013-9.7 21 21 0 017.28-5.92c.07-.55.17-1.14.27-1.67zM70.59 192.7l-.22-.19a.44.44 0 01-.06-.16.75.75 0 01-.07-.12l-4.53-14.79-4.42 7a1.24 1.24 0 01-.29.46l-2.38 3.81a1 1 0 01-1 .45l-13.8-1.94 9.41 12.14a1 1 0 01.19.44 1.06 1.06 0 010 .47L49 213.84l13.12-3.66a1 1 0 01.49 0 1 1 0 01.44.23l11.24 10L73 206.17a1 1 0 01.1-.53 1.06 1.06 0 01.36-.4l4.38-2.77a1 1 0 01.54-.35l6.38-4-14.02-5.32zm191.75 99.12a47.6 47.6 0 01-2.69 6.82c-4 7.85-11 15-20.45 20.5-18 10.49-45.43 14.09-66-1.51h-.07c-1.7-1.86-4.8-4.76-8.13-7.86a.89.89 0 00-.45-.5h-.11l-.27-.25c-.17-.16-.35-.31-.51-.47l-.77-.73c-5-4.71-11.31-10.58-17.41-17.12-17.29-18.5-25.89-34.55-25.57-47.7a47.47 47.47 0 013.51-17.61 37 37 0 002.93 8.56A11.31 11.31 0 00137.42 248a12.43 12.43 0 008.55-3.45 12 12 0 00.82-16.83 11.37 11.37 0 00-2.69-2.09 137.48 137.48 0 01-1.66-15.63 18.3 18.3 0 005.26 5 11.54 11.54 0 006 1.68 13.24 13.24 0 004-.65c6.81-2.17 11.73-7.54 14.44-15.67.53 3.48 1.05 6.38 1.53 8.59a11.22 11.22 0 00-.45 6.41 11.78 11.78 0 0011.64 9 12.61 12.61 0 002.81-.32 12.43 12.43 0 007.63-5.21 11.31 11.31 0 00.09-12.53 11.1 11.1 0 00-3.09-3.13c-.17-.12-.35-.23-.53-.34a91.53 91.53 0 01-2-16.41c2 10.74 8.17 23.26 25.06 28.13h.27a1 1 0 001.16-.84 1 1 0 00-.18-.75 1 1 0 00-.66-.41c-12.59-3.63-20.46-12-23.39-25a52.56 52.56 0 01-.67-18.25 1.11 1.11 0 00.13-.36c2.84-16.93 1.6-32.89-3.66-47.43-.67-1.87-1.39-3.62-2.12-5.28a51.93 51.93 0 008.78 2.91 41 41 0 009.17 1.1 28.15 28.15 0 0013.91-3.41c10.72-6 11.91-16.18 11.49-22.41a204.77 204.77 0 0113.12 29.28c10 28.38 10.34 52 8.91 66.79-1.54 16.05-5.54 25.51-5.54 25.6a1 1 0 00-.07.39 1.31 1.31 0 00.09.38 1 1 0 00.23.31 1.15 1.15 0 00.33.21 1 1 0 00.73 0 1 1 0 00.53-.5c.15-.36 3.52-8.41 5.28-22.51 1.13 5 2.61 12.18 4.13 21.27a465 465 0 016.48 63.72 31 31 0 01-.94 12.46zm-37.78-34.11A41.88 41.88 0 00212 240.44c-12.12-10.18-25.51-14.06-39.83-11.65a30.77 30.77 0 00-17.17 8.57c-8 8-10.56 17.94-7.74 29.79.33 1.4.87 2.87 1.27 4.28.6 1.41 1.27 2.81 1.87 4.22l.4.6a44.5 44.5 0 0010.58 13.12c10.31 8.7 22 12.85 34.68 12.32 1.61-.13 3.14-.4 4.61-.54l4.36-1c.2-.07.33-.2.53-.27a30 30 0 0012.85-7.5q13.99-14.17 6.15-34.67zm47.57 135.55a18.47 18.47 0 01-10.5-3.07c1.76 4 3.25 10.81.17 20.41-3.77 11.71-1 21.6 1.73 25.39a4.07 4.07 0 002.41 1.89c17.05-2.7 19-40.44 19.22-53.52a24.53 24.53 0 01-1.71 2.46c-3.26 4.03-7.06 6.18-11.32 6.44zm84.64-59.43l-.08-.12a.67.67 0 01-.1-.23v-.09l-8.21-41.67-14.57 28.73-1.32 2.62a1.39 1.39 0 01-.21.27l-.06.05a1.64 1.64 0 01-.22.14 1 1 0 01-.4.09 1.15 1.15 0 01-.41-.08l-29.35-10.9 16.05 32 .73 1.46.73 1.45.89 1.78a1 1 0 01.07.73l-11.39 38.24 28.93-11.75a1 1 0 01.67 0 1 1 0 01.54.4l23 33.8-1.18-43.92a1.31 1.31 0 010-.28.85.85 0 01.15-.3.77.77 0 01.22-.22l3.82-2.55 1.43-1 1.47-1L385 350l-28-16a1.06 1.06 0 01-.23-.17zm-137.43-76.52c7.72 17.28-.53 34.66-18.47 38.89s-39-6.49-46.73-23.77c-7.73-17.28.48-34.62 18.48-38.85s39 6.42 46.72 23.73zm-4.42 2.4a30.77 30.77 0 00-9.3-12.66c-9-7.46-18.84-10.31-29.42-8.54a22.81 22.81 0 00-12.66 6.28c-5.93 5.88-7.81 13.25-5.73 21.93.24 1 .64 2.14.94 3.14a28.51 28.51 0 001.38 3.09l.3.44a32.43 32.43 0 007.81 9.62c7.61 6.39 16.22 9.43 25.61 9 1.19-.1 2.33-.3 3.41-.4l3.22-.73c.15 0 .25-.2.39-.2a22.21 22.21 0 009.5-5.5q10.31-10.46 4.55-25.47zm176.68-42.62c-13.86-1-28 .21-41.67 1.41-10.27.91-20.89 1.81-31.35 1.81-24.22 0-49.35-10.84-64.11-27.32l.09.35v.22a1 1 0 010 .24.74.74 0 010 .21c1.11 4.94 2.56 12 4.06 20.88.44.41.88.82 1.33 1.22l.63.58a118.65 118.65 0 0053.52 27.41h.13l1.76.36 1.1.22.84.15a111.88 111.88 0 0019.07 1.83c2 .08 3.85.05 5.75 0 16.23-.72 32.38-4.95 48-8.95 6.1-1.62 12.4-3.21 18.64-4.62a161 161 0 0131.43-4.28h.18a165.24 165.24 0 00-49.4-11.72zM135.63 327a.79.79 0 01-.34.1h-.08a1 1 0 01-.52-.15 1 1 0 01-.37-.4 23.84 23.84 0 01-6.88-4 22.54 22.54 0 01-2.58-2.59 1.26 1.26 0 01-.35.17 1.08 1.08 0 01-.4 0 1.11 1.11 0 01-.36-.13 1.06 1.06 0 01-.29-.27 1 1 0 01-.19-.53 1 1 0 01.13-.55 2 2 0 01.21-.3 24.37 24.37 0 01-2.76-5 .91.91 0 01-1.11 0 1 1 0 01-.19-1.4c.18-.23.36-.45.55-.67a24.45 24.45 0 01-.9-4.14 17.17 17.17 0 00-2 2 1 1 0 01-.34.26 1 1 0 01-.42.09 1 1 0 01-.65-.25 1 1 0 01-.24-.31.94.94 0 01-.11-.37 1 1 0 010-.39 1.14 1.14 0 01.19-.34 19.47 19.47 0 013.37-3.03 23 23 0 01.18-3.71c-2.15 1-6 3.25-7.22 6.49-1.72 5.31-.61 10.22 3.28 14.6a24.11 24.11 0 006.6 5.15c8 4.11 15.82 4.36 23.25.77a25.23 25.23 0 01-9.46-1.1zm101.74 74.78a58.46 58.46 0 01.21-9.9v-2.04h-.08c-.38-9.44-5-12.41-8.24-13.7-2.08 18.7-6 33.92-11.71 45.24a161.26 161.26 0 007.36 14.7c5.82 10.14 11 15.38 14.39 14.8a6 6 0 004.06-3.44c3.53-7 .92-22.12-1.68-28.12a52.47 52.47 0 01-4.31-17.53zM67.2 89.8a.93.93 0 01-.2-.41l-6.16-26.88-19.55 18.56a1.14 1.14 0 01-.43.24 1 1 0 01-.49 0L9.9 74l16.73 23.61a1 1 0 010 1.09l-4.35 7.3-.07.08-8.64 14.41 30.33-3.39h.32l.18.06a1.13 1.13 0 01.21.12h.08l22.57 21 1.11-15.42a1 1 0 010-.73l.7-9.74a1 1 0 01.68-.88l26.28-8.94-28.46-12.49a1 1 0 01-.37-.28zM187.05 261c-.38.21-.32.48-.05 1s.48.62.92.43a2.76 2.76 0 013.5 1c.32.43.49.47 1.1.13s.76-.52.51-1a4.4 4.4 0 00-5.98-1.56zm9.34-.27c1.79 3.24 1.66 8.76-3.9 11.83a23.18 23.18 0 01-9.08 2.74 17.66 17.66 0 01-5.67-.17.61.61 0 01-.38-.22.35.35 0 01.18-.5l4-2.2c.28-.15.33-.35.25-.51s-.22-.22-.52-.2a57.29 57.29 0 01-6 0 20.83 20.83 0 01-4.92-.73.58.58 0 01-.38-.29.39.39 0 01.2-.54l8.66-4.79c.27-.15.34-.34.23-.54s-.23-.19-.53-.16c-.72.09-1.45.17-2.42.21a12.51 12.51 0 01-2.34-.08.4.4 0 01-.3-.18.35.35 0 01.18-.51l10.91-6c5.44-3.08 9.89-.68 11.83 2.83zm-2.07 1.13a5.85 5.85 0 00-8-2.24 5.89 5.89 0 108 2.24z" fill="#fff"/></svg>